# This file uses centimeters as units for non-parametric coordinates.

mtllib brick_wall.mtl
g default
v -4.216798 -2.020620 0.500000
v 4.216798 -2.020620 0.500000
v -4.216798 2.020620 0.500000
v 4.216798 2.020620 0.500000
v -4.216798 2.020620 -0.500000
v 4.216798 2.020620 -0.500000
v -4.216798 -2.020620 -0.500000
v 4.216798 -2.020620 -0.500000
vt 0.977428 0.812287
vt 0.673958 0.956040
vt 0.974304 0.956388
vt 0.677082 0.811940
vt 0.974390 0.882068
vt 0.182889 0.397041
vt 0.674044 0.881720
vt 0.047256 0.880995
vt 0.050381 0.736894
vt 0.809675 0.398367
vt 0.809040 0.698713
vt 0.677168 0.737619
vt 0.182254 0.697387
vt 0.694050 0.351439
vt 0.050295 0.811214
vt 0.693747 0.051093
vt 0.066960 0.051726
vt 0.067263 0.352072
vt 0.977514 0.737967
vt 0.047170 0.955315
vn 0.000000 0.000000 1.000000
vn 0.000000 0.000000 1.000000
vn 0.000000 0.000000 1.000000
vn 0.000000 0.000000 1.000000
vn 0.000000 1.000000 0.000000
vn 0.000000 1.000000 0.000000
vn 0.000000 1.000000 0.000000
vn 0.000000 1.000000 0.000000
vn 0.000000 0.000000 -1.000000
vn 0.000000 0.000000 -1.000000
vn 0.000000 0.000000 -1.000000
vn 0.000000 0.000000 -1.000000
vn 0.000000 -1.000000 0.000000
vn 0.000000 -1.000000 0.000000
vn 0.000000 -1.000000 0.000000
vn 0.000000 -1.000000 0.000000
vn 1.000000 0.000000 0.000000
vn 1.000000 0.000000 0.000000
vn 1.000000 0.000000 0.000000
vn 1.000000 0.000000 0.000000
vn -1.000000 0.000000 0.000000
vn -1.000000 0.000000 0.000000
vn -1.000000 0.000000 0.000000
vn -1.000000 0.000000 0.000000
s off
g brickwall
usemtl lambert3SG
f 1/17/1 2/16/2 4/14/3 3/18/4
f 3/4/5 4/15/6 6/9/7 5/12/8
f 5/6/9 6/10/10 8/11/11 7/13/12
f 7/8/13 8/7/14 2/2/15 1/20/16
f 2/2/17 8/7/18 6/5/19 4/3/20
f 7/19/21 1/1/22 3/4/23 5/12/24
